<?xml version="1.0" standalone="no"?><svg xmlns="http://www.w3.org/2000/svg" viewBox="0 0 1440 320"><path fill="#C29C6D" fill-opacity="0.2" d="M0,128L30,112C60,96,120,64,180,85.3C240,107,300,181,360,208C420,235,480,213,540,176C600,139,660,85,720,69.3C780,53,840,75,900,96C960,117,1020,139,1080,128C1140,117,1200,75,1260,74.7C1320,75,1380,117,1410,138.7L1440,160L1440,320L1410,320C1380,320,1320,320,1260,320C1200,320,1140,320,1080,320C1020,320,960,320,900,320C840,320,780,320,720,320C660,320,600,320,540,320C480,320,420,320,360,320C300,320,240,320,180,320C120,320,60,320,30,320L0,320Z"></path></svg>